# xmcd
#
# Track frame offsets:
#	150
#	19387
#	33300
#	44867
#	61000
#	73022
#	84975
#	104990
#	121445
#	135477
#	150325
#	176007
#	192072
#	205702
#	216297
#	236012
#	248622
#	261315
#	274627
#	287042
#
# Disc length: 4147
#
# Revision: 3
# Processed by: cddbd v1.5.1PL0 Copyright (c) Steve Scherf et al.
# Submitted via: CDex 1.50Beta6
# Normalized: r1:TDELIM( - ),TSWAP
#
DISCID=27103114
DTITLE=GITANES BLUES HARMONICA - HARMONICA
DYEAR=1999
DGENRE=Blues
TTITLE0=Big Walter Horton - Good morning' blues
TTITLE1=Little Walter - Flying saucer
TTITLE2=Sonny Boy Williamson - Bye bye Bird
TTITLE3=James Cotton - Dealin' with the devil
TTITLE4=Willie Nix and Big Walter Horton - Truckin' Little Woman
TTITLE5=Dr Roos - Dr Ross' Boogie
TTITLE6=Big Daddy Kinsey and Carey Bell - These Kind of blues
TTITLE7=Muddy Water and Paul Butterfield - Why are people like that ?
TTITLE8=Henry Gray and Henry Strong - I declare that ain't right
TTITLE9=Forest City Joe - Memory of Sonny Boy
TTITLE10=Billy Branch - Bring it on home
TTITLE11=Howlin' Wolf - Tryin' to forget you
TTITLE12=John Brim and Little Walter - It was a dream
TTITLE13=Muddy Water and James Cotton - Muddy Water' Shuffle
TTITLE14=Sugar Blues and Big Daddy Kinsey - Walkin' thru the park
TTITLE15=Jimmy Rogers and Big Walter Horton - Walking by myself
TTITLE16=Sonny Boy Williamson - One way out
TTITLE17=Junior Parker - That's all right
TTITLE18=Little Walter - Shake dancer
TTITLE19=Buddy Scott and Billy Branch - Blues with a Feeling
EXTD=YEAR: 1999
EXTT0=
EXTT1=
EXTT2=
EXTT3=
EXTT4=
EXTT5=
EXTT6=
EXTT7=
EXTT8=
EXTT9=
EXTT10=
EXTT11=
EXTT12=
EXTT13=
EXTT14=
EXTT15=
EXTT16=
EXTT17=
EXTT18=
EXTT19=
PLAYORDER=
